<svg version="1" xmlns="http://www.w3.org/2000/svg" width="413.333" height="413.333" viewBox="0 0 310.000000 310.000000"><path d="M0 155v155h310V0H0v155zM113.5 34.9c1.7 1.5 5.6 4.4 8.8 6.6 3.2 2.1 9.1 7.3 13 11.6l7.2 7.7 6.3-1c4.2-.7 8.2-.8 12.5-.1l6.2 1.1 7.4-8c4.1-4.4 10.6-10.2 14.5-12.9 3.9-2.7 8.3-5.9 9.9-7.1l2.7-2.2 2.8 2.1c3.3 2.5 3.8 4.7 1.8 7.8-1.3 2-2.5 2.5-5.9 2.5-4.4 0-8.6 2.2-15.7 8.3-3.7 3.2-10 10.5-10 11.5 0 .4 2 1.8 4.5 3.1 2.4 1.3 7.1 4.9 10.2 8.1 10.2 10 14.2 20.3 14.5 37 .1 5.2.6 10 1 10.7.5.6 10.7 4.4 22.6 8.4 26 8.6 33.2 12 39.4 18.7 16.2 17.3 15.5 43.6-1.6 60.8-14.7 14.6-38.7 16.3-55.6 3.9-3.5-2.6-5.1-3.3-5.5-2.3-.2.7-.6 7.1-.7 14.3-.4 15.4-2 19.8-10.3 28-6.9 6.9-34.9 24.8-38.6 24.8-1.7 0-6.3-2.2-12.1-6-5.1-3.3-12.3-7.9-16.1-10.3-8.8-5.6-16-13.5-18.8-20.8-1.7-4.5-2.3-8.5-2.7-18.5l-.4-12.8-3.2 2.4c-18 13.8-42.1 12.4-57.9-3.4-11.1-11.2-15.3-26.4-11.3-41.9 4.8-18.6 15.1-26.1 53-38.5 21.9-7.1 20.3-5.6 20.5-20.1.2-18 8.7-33.2 22.9-41.4 3.4-1.9 6.2-3.7 6.2-4 .1-1.6-7.4-9.1-14.3-14.1-6.2-4.6-8.7-5.9-11.5-5.9-5.9 0-9.2-5.1-5.9-9.2 2.6-3.3 5.5-3 10.2 1.1z"/><path d="M145.3 79.4c-8 2.6-15.5 9.6-19 17.6-.8 1.9-1.7 7.3-2 11.9-.6 7.8-.5 8.3 1.3 7.7 5.9-1.8 27.2-6.6 29.4-6.6 2.2 0 23.5 4.8 29.4 6.6 1.8.6 1.9.2 1.4-7.4-.9-13.1-6.8-22.6-17.2-27.9-6.2-3.2-16.9-4-23.3-1.9zM116.5 138.4c-14.1 4.1-52.3 17.3-56.2 19.4-2.7 1.5-6.8 6.2-8.9 10.2-3.8 7.3-1.4 21 4.9 27.9 6.6 7.1 20.1 9.2 29.5 4.5 6.1-3 6.9-4 24.4-29.9 17.7-26.2 24.1-36.5 22.6-36.5-.7.1-8 2-16.3 4.4zM177.2 136.2c.8 1.3 7.1 11.1 13.9 21.8 18.1 28.4 26.1 38.7 32.9 42.3 4.9 2.6 6.2 2.8 12.5 2.5 7.8-.5 11.7-2.2 16.5-7 4.9-4.8 7-10.2 7-17.8 0-11.3-3.8-16.8-15-21.9-12-5.4-63.7-22.1-68.5-22.1-.4 0-.1 1 .7 2.2zM151.1 141.1c-1.7 2.8-3 5.3-2.8 5.6.3.2 3.4.3 7 .1l6.5-.3-3.1-5.3c-1.8-2.8-3.5-5.2-3.8-5.2-.3 0-2 2.3-3.8 5.1zM137.4 163.6c-3 4.7-5.3 8.8-5.1 9 .2.2 10.6.3 23 .2l22.7-.3-5.6-8.8-5.6-8.7H143l-5.6 8.6zM126 182c-1.6 1.6-2 3.3-2 9v7h62v-7c0-11.4 1.2-11-31-11-25.7 0-27.1.1-29 2zM124 213.5v9.5h62v-19h-62v9.5zM124.4 231.6c.3.9.6 2 .6 2.5 0 1.6 7.2 8.9 11.9 12.2 2.5 1.7 7.5 4.7 11.3 6.8l6.7 3.7 9-5.1c13.4-7.7 19.8-13.4 21.6-19.5l.6-2.2H155c-28.1 0-31.2.2-30.6 1.6z"/></svg>